<svg viewBox="0 0 76 76" xmlns="http://www.w3.org/2000/svg" xmlns:xlink="http://www.w3.org/1999/xlink" id="Layer_2" overflow="hidden"><style>
.MsftOfcThm_Background1_Fill_v2 {
 fill:#FFFFFF; 
}
</style>
<defs></defs><g id="Layer_1-2"><g><path d="M0 0 0 76 76 76 76 0 0 0ZM74 74 2 74 2 2 74 2 74 74Z" class="cls-1 MsftOfcThm_Background1_Fill_v2" fill="#FFFFFF"/><path d="M51.69 50.51 49.69 50.51 49.69 66.07 9.95 66.07 9.95 17.53 49.69 17.53 49.69 27.21 51.69 27.21 51.69 8.05 7.95 8.05 7.95 68.07 51.69 68.07 51.69 50.51ZM49.69 10.05 49.69 15.53 9.95 15.53 9.95 10.05 49.69 10.05Z" class="cls-1 MsftOfcThm_Background1_Fill_v2" fill="#FFFFFF"/><path d="M68.46 27.89 61.51 20.94 57.61 24.85 64.56 31.8 68.46 27.89ZM61.51 23.77 65.63 27.89 64.55 28.97 60.43 24.85 61.51 23.77Z" class="cls-1 MsftOfcThm_Background1_Fill_v2" fill="#FFFFFF"/><path d="M40.87 41.89 37.86 50.15C37.71 50.55 37.81 51.01 38.12 51.31 38.33 51.52 38.62 51.63 38.91 51.63 39.04 51.63 39.16 51.61 39.28 51.56L47.58 48.56C47.81 48.48 48.03 48.34 48.2 48.17L63.33 33.11 56.35 26.24 41.27 41.25C41.1 41.42 40.96 41.64 40.87 41.87ZM56.36 29.08 60.49 33.14 46.84 46.72 40.4 49.05 42.73 42.64 56.36 29.07Z" class="cls-1 MsftOfcThm_Background1_Fill_v2" fill="#FFFFFF"/><rect x="13.08" y="42.66" width="22.9" height="2" class="cls-1 MsftOfcThm_Background1_Fill_v2" fill="#FFFFFF"/><rect x="13.08" y="34.98" width="26.78" height="2" class="cls-1 MsftOfcThm_Background1_Fill_v2" fill="#FFFFFF"/><rect x="13.08" y="27.3" width="31.93" height="2" class="cls-1 MsftOfcThm_Background1_Fill_v2" fill="#FFFFFF"/><rect x="13.08" y="50.34" width="22.9" height="2" class="cls-1 MsftOfcThm_Background1_Fill_v2" fill="#FFFFFF"/></g></g></svg>