<svg viewBox="0 0 72 72" xmlns="http://www.w3.org/2000/svg" xmlns:xlink="http://www.w3.org/1999/xlink" id="graphics" overflow="hidden"><style>
.MsftOfcThm_Accent1_Fill_v2 {
 fill:#F900D3; 
}
</style>
<path d="M0 0 0 72 72 72 72 0 0 0ZM70 70 2 70 2 2 70 2 70 70ZM25.999 17C28.756 17 31 14.757 31 12 31 11.558 30.942 11.13 30.834 10.721 32.708 9.986 34.674 9.544 36.684 9.405 42.342 9.018 47.711 10.921 51.82 14.766 54.272 17.058 56.123 19.947 57.17 23.111L62.626 40 57 40 57 53 45.63 53 38.63 59 33.9 59C33.435 56.721 31.415 55 29 55 26.243 55 24 57.243 24 60 24 62.757 26.243 65 28.999 65 31.414 65 33.435 63.279 33.899 61L39.37 61 46.37 55 59 55 59 42 65.374 42 59.071 22.49C57.917 19.002 55.883 15.826 53.187 13.306 48.668 9.077 42.76 6.978 36.547 7.41 34.274 7.566 32.053 8.076 29.94 8.924 29.023 7.754 27.597 7 25.999 7 23.243 7 21 9.243 21 12 21 14.757 23.243 17 25.999 17ZM28.999 63C27.345 63 26 61.654 26 60 26 58.346 27.345 57 28.999 57 30.654 57 32 58.346 32 60 32 61.654 30.654 63 28.999 63ZM25.999 9C27.654 9 29 10.346 29 12 29 13.654 27.654 15 25.999 15 24.345 15 23 13.654 23 12 23 10.346 24.345 9 25.999 9ZM11.999 25C13.593 25 15.016 24.25 15.932 23.084L19.764 25 34 25 34 23 20.236 23 16.829 21.296C16.94 20.883 17 20.448 17 20 17 17.243 14.756 15 11.999 15 9.243 15 7 17.243 7 20 7 22.757 9.243 25 11.999 25ZM11.999 17C13.654 17 15 18.346 15 20 15 21.654 13.654 23 11.999 23 10.345 23 9 21.654 9 20 9 18.346 10.345 17 11.999 17ZM11.999 45C14.756 45 17 42.757 17 40 17 39.285 16.849 38.604 16.577 37.988L21.362 34 41.414 34 47.414 28 54 28 54 26 46.586 26 40.586 32 20.638 32 15.415 36.352C14.521 35.514 13.319 35 11.999 35 9.243 35 7 37.243 7 40 7 42.757 9.243 45 11.999 45ZM11.999 37C13.654 37 15 38.346 15 40 15 41.654 13.654 43 11.999 43 10.345 43 9 41.654 9 40 9 38.346 10.345 37 11.999 37ZM11.999 65C14.756 65 17 62.757 17 60 17 58.962 16.682 57.997 16.138 57.197L25.468 46 40.877 46 48.757 47.97 53 48 53 46 49.123 46 41.243 44.03 24.532 44 14.702 55.795C13.922 55.292 12.994 55 11.999 55 9.243 55 7 57.243 7 60 7 62.757 9.243 65 11.999 65ZM11.999 57C13.654 57 15 58.346 15 60 15 61.654 13.654 63 11.999 63 10.345 63 9 61.654 9 60 9 58.346 10.345 57 11.999 57Z" class="MsftOfcThm_Accent1_Fill_v2" fill="#F900D3"/></svg>