<svg viewBox="0 0 101.2 101.29" xmlns="http://www.w3.org/2000/svg" xmlns:xlink="http://www.w3.org/1999/xlink" id="Layer_1" overflow="hidden"><style>
.MsftOfcThm_Accent1_Fill_v2 {
 fill:#F900D3; 
}
</style>
<defs></defs><path d="M63.25 38.34C63.25 31.55 57.58 26.03 50.6 26.03 43.62 26.03 37.95 31.55 37.95 38.34 37.95 45.13 43.63 50.65 50.6 50.65 57.57 50.65 63.25 45.13 63.25 38.34ZM40.47 38.34C40.47 32.9 45.02 28.48 50.6 28.48 56.18 28.48 60.73 32.9 60.73 38.34 60.73 43.78 56.19 48.2 50.6 48.2 45.01 48.2 40.47 43.78 40.47 38.34Z" class="MsftOfcThm_Accent1_Fill_v2" fill="#F900D3"/><path d="M50.6 86.52 51.6 85.2C52.59 83.89 75.9 53.3 75.9 39.6 75.9 25.9 64.55 14.77 50.6 14.77 36.65 14.77 25.3 26.31 25.3 39.6 25.3 52.89 48.61 83.88 49.6 85.2L50.6 86.52ZM50.6 17.21C63.18 17.21 73.42 27.26 73.42 39.61 73.42 50.62 55.12 76.25 50.6 82.41 46.08 76.25 27.78 50.62 27.78 39.61 27.78 27.26 38.02 17.21 50.6 17.21Z" class="MsftOfcThm_Accent1_Fill_v2" fill="#F900D3"/><path d="M0 0 0 101.29 101.2 101.29 101.2 0 0 0ZM98.53 98.63 2.66 98.63 2.66 2.67 98.53 2.67 98.53 98.63Z" class="MsftOfcThm_Accent1_Fill_v2" fill="#F900D3"/></svg>