<svg viewBox="0 0 75.99 76" xmlns="http://www.w3.org/2000/svg" xmlns:xlink="http://www.w3.org/1999/xlink" id="Layer_2" overflow="hidden"><style>
.MsftOfcThm_Background1_Fill_v2 {
 fill:#FFFFFF; 
}
</style>
<defs></defs><g id="Layer_1-2"><g><path d="M0 0 0 76 75.99 76 75.99 0 0 0ZM73.99 74 2 74 2 2 73.99 2 73.99 74Z" class="MsftOfcThm_Background1_Fill_v2" fill="#FFFFFF"/><path d="M64.91 12.2 55.52 12.2 55.52 8.03 53.52 8.03 53.52 12.2 44.51 12.2 44.51 8.03 42.51 8.03 42.51 12.2 33.5 12.2 33.5 8.03 31.5 8.03 31.5 12.2 22.49 12.2 22.49 8.03 20.49 8.03 20.49 12.2 11.1 12.2 11.1 68.15 64.91 68.15 64.91 12.2ZM62.91 66.15 13.11 66.15 13.11 14.2 20.5 14.2 20.5 19.13 22.5 19.13 22.5 14.2 31.51 14.2 31.51 19.13 33.51 19.13 33.51 14.2 42.52 14.2 42.52 19.13 44.52 19.13 44.52 14.2 53.53 14.2 53.53 19.13 55.53 19.13 55.53 14.2 62.92 14.2 62.92 66.15Z" class="MsftOfcThm_Background1_Fill_v2" fill="#FFFFFF"/><path d="M18.31 35.46 30.35 35.46 30.35 23.74 18.31 23.74 18.31 35.46ZM20.31 25.74 28.35 25.74 28.35 33.46 20.31 33.46 20.31 25.74Z" class="MsftOfcThm_Background1_Fill_v2" fill="#FFFFFF"/><path d="M31.99 35.46 44.03 35.46 44.03 23.74 31.99 23.74 31.99 35.46ZM33.99 25.74 42.03 25.74 42.03 33.46 33.99 33.46 33.99 25.74Z" class="MsftOfcThm_Background1_Fill_v2" fill="#FFFFFF"/><path d="M45.67 35.46 57.71 35.46 57.71 23.74 45.67 23.74 45.67 35.46ZM47.67 25.74 55.71 25.74 55.71 33.46 47.67 33.46 47.67 25.74Z" class="MsftOfcThm_Background1_Fill_v2" fill="#FFFFFF"/><path d="M18.31 49.16 30.35 49.16 30.35 37.44 18.31 37.44 18.31 49.16ZM20.31 39.44 28.35 39.44 28.35 47.16 20.31 47.16 20.31 39.44Z" class="MsftOfcThm_Background1_Fill_v2" fill="#FFFFFF"/><path d="M31.99 49.16 44.03 49.16 44.03 37.44 31.99 37.44 31.99 49.16ZM33.99 39.44 42.03 39.44 42.03 47.16 33.99 47.16 33.99 39.44Z" class="MsftOfcThm_Background1_Fill_v2" fill="#FFFFFF"/><path d="M45.67 49.16 57.71 49.16 57.71 37.44 45.67 37.44 45.67 49.16ZM47.67 39.44 55.71 39.44 55.71 47.16 47.67 47.16 47.67 39.44Z" class="MsftOfcThm_Background1_Fill_v2" fill="#FFFFFF"/><path d="M18.31 62.08 30.35 62.08 30.35 50.36 18.31 50.36 18.31 62.08ZM20.31 52.35 28.35 52.35 28.35 60.07 20.31 60.07 20.31 52.35Z" class="MsftOfcThm_Background1_Fill_v2" fill="#FFFFFF"/><path d="M31.99 62.08 44.03 62.08 44.03 50.36 31.99 50.36 31.99 62.08ZM33.99 52.35 42.03 52.35 42.03 60.07 33.99 60.07 33.99 52.35Z" class="MsftOfcThm_Background1_Fill_v2" fill="#FFFFFF"/><rect x="45.88" y="50.82" width="11.14" height="10.79" class="MsftOfcThm_Background1_Fill_v2" fill="#FFFFFF"/></g></g></svg>