<svg viewBox="0 0 76 76" xmlns="http://www.w3.org/2000/svg" xmlns:xlink="http://www.w3.org/1999/xlink" id="Layer_2" overflow="hidden"><style>
.MsftOfcThm_Background1_Fill_v2 {
 fill:#FFFFFF; 
}
</style>
<defs></defs><g id="Layer_1-2"><g><path d="M9.22 38.97 67.43 38.97C68.12 38.97 68.68 38.41 68.68 37.72 68.68 37.03 68.12 36.47 67.43 36.47L67.43 36.47C67.43 36.47 58.53 36.47 58.53 36.47L50.62 9.57 50.57 9.44C50.26 8.7 49.64 8.12 48.89 7.84 48.14 7.56 47.29 7.61 46.57 7.97L38.32 12.13 30.07 7.97C29.35 7.61 28.51 7.56 27.75 7.84 27 8.12 26.39 8.7 26.07 9.44L18.04 36.48 9.21 36.48C8.52 36.48 7.96 37.04 7.96 37.72 7.96 38.4 8.52 38.97 9.21 38.97ZM28.41 10.36C28.48 10.25 28.57 10.19 28.63 10.17 28.7 10.15 28.82 10.12 28.96 10.19L38.33 14.92 47.7 10.19C47.84 10.12 47.97 10.15 48.03 10.17 48.08 10.19 48.18 10.24 48.25 10.36L55.93 36.47 20.66 36.47C20.66 36.47 28.41 10.36 28.41 10.36Z" class="cls-1 MsftOfcThm_Background1_Fill_v2" fill="#FFFFFF"/><path d="M51.54 45.69 51.54 45.69C45.97 45.69 41.35 49.79 40.53 55.14 39.8 55.01 39.06 54.95 38.29 54.95 37.52 54.95 36.83 55.03 36.13 55.15 35.31 49.81 30.69 45.69 25.11 45.69 18.95 45.69 13.95 50.69 13.95 56.85 13.95 63.01 18.95 68.01 25.11 68.01 31.27 68.01 35.81 63.43 36.23 57.66 36.9 57.53 37.57 57.45 38.29 57.45 39.01 57.45 39.74 57.53 40.43 57.66 40.85 63.44 45.67 68.01 51.55 68.01 57.43 68.01 62.71 63.01 62.71 56.85 62.71 50.69 57.71 45.69 51.55 45.69ZM25.1 65.51C20.32 65.51 16.44 61.62 16.44 56.85 16.44 52.08 20.33 48.19 25.1 48.19 29.87 48.19 33.76 52.08 33.76 56.85 33.76 61.62 29.87 65.51 25.1 65.51ZM51.54 65.51C46.76 65.51 42.88 61.62 42.88 56.85 42.88 52.08 46.77 48.19 51.54 48.19 56.31 48.19 60.2 52.08 60.2 56.85 60.2 61.62 56.31 65.51 51.54 65.51Z" class="cls-1 MsftOfcThm_Background1_Fill_v2" fill="#FFFFFF"/><path d="M0 0 0 76 76 76 76 0 0 0ZM74 74 2 74 2 2 74 2 74 74Z" class="cls-1 MsftOfcThm_Background1_Fill_v2" fill="#FFFFFF"/></g></g></svg>