<svg viewBox="0 0 75.99 76" xmlns="http://www.w3.org/2000/svg" xmlns:xlink="http://www.w3.org/1999/xlink" id="Layer_2" overflow="hidden"><style>
.MsftOfcThm_Background1_Fill_v2 {
 fill:#FFFFFF; 
}
</style>
<defs></defs><g id="Layer_1-2"><g><path d="M0 0 0 76 75.99 76 75.99 0 0 0ZM73.99 74 2 74 2 2 73.99 2 73.99 74Z" class="MsftOfcThm_Background1_Fill_v2" fill="#FFFFFF"/><path d="M12.62 44.87 47.62 44.87 47.61 44.87C48.04 44.86 48.44 44.64 48.67 44.27 48.88 43.9 48.91 43.44 48.71 43.05L31.21 8.56C31.01 8.13 30.58 7.87 30.11 7.87 29.64 7.87 29.22 8.14 29.01 8.56L11.52 43.07C11.32 43.46 11.33 43.92 11.56 44.29 11.79 44.66 12.19 44.88 12.62 44.88ZM30.12 11.44 45.91 42.58 14.34 42.58 30.13 11.44Z" class="MsftOfcThm_Background1_Fill_v2" fill="#FFFFFF"/><path d="M30.8 33.94 32.03 26.35 32.03 21.16 27.86 21.16 27.86 26.35 29.12 33.94 30.8 33.94Z" class="MsftOfcThm_Background1_Fill_v2" fill="#FFFFFF"/><path d="M31.76 36.02C31.39 35.63 30.79 35.43 29.93 35.43 29.07 35.43 28.45 35.63 28.1 36.02 27.74 36.42 27.56 36.89 27.56 37.47L27.56 38.11C27.56 38.68 27.73 39.17 28.1 39.56 28.47 39.95 29.07 40.15 29.93 40.15 30.79 40.15 31.39 39.95 31.76 39.56 32.12 39.16 32.3 38.69 32.3 38.11L32.3 37.47C32.3 36.9 32.11 36.41 31.76 36.02Z" class="MsftOfcThm_Background1_Fill_v2" fill="#FFFFFF"/><path d="M43.25 23.27 53.45 23.27 53.45 50.34 61.31 50.34 48.35 64.29 35.39 50.34 43.25 50.34 43.25 45.73 41.1 45.73 41.1 48.19 33.06 48.19C32.59 48.19 32.17 48.46 31.99 48.88 31.8 49.28 31.89 49.75 32.19 50.07L47.47 66.52C47.68 66.76 48 66.89 48.33 66.89L48.36 66.89C48.69 66.89 49 66.75 49.22 66.52L64.5 50.07C64.8 49.75 64.87 49.28 64.7 48.88 64.51 48.46 64.1 48.19 63.63 48.19L55.59 48.19 55.59 21.12 41.09 21.12 41.09 24.95 43.24 29.06 43.24 23.27Z" class="MsftOfcThm_Background1_Fill_v2" fill="#FFFFFF"/></g></g></svg>